<svg xmlns="http://www.w3.org/2000/svg" width="800" height="640" viewBox="0 0 800 640">
  <defs>
    <linearGradient id="bg" x1="0%" y1="0%" x2="100%" y2="100%">
      <stop offset="0%"   stop-color="#050d1a"/>
      <stop offset="50%"  stop-color="#071a30"/>
      <stop offset="100%" stop-color="#0a2640"/>
    </linearGradient>
    <!-- Grid sutil -->
    <pattern id="grid" width="40" height="40" patternUnits="userSpaceOnUse">
      <path d="M 40 0 L 0 0 0 40" fill="none" stroke="rgba(0,212,255,0.04)" stroke-width="0.5"/>
    </pattern>
  </defs>
  <rect width="800" height="640" fill="url(#bg)"/>
  <rect width="800" height="640" fill="url(#grid)"/>
  <!-- Dashboard CRM -->
           <rect x="80" y="100" width="640" height="440" rx="16" fill="rgba(255,255,255,0.03)" stroke="rgba(24,119,242,0.25)" stroke-width="1.5"/>
           <rect x="80" y="100" width="640" height="44" rx="16" fill="rgba(24,119,242,0.2)"/>
           <text x="160" y="128" font-family="sans-serif" font-size="16" font-weight="bold" fill="rgba(255,255,255,0.9)">Painel de Leads — Meta</text>
           <!-- KPI cards -->
           <rect x="100" y="164" width="140" height="80" rx="10" fill="rgba(0,212,255,0.1)" stroke="rgba(0,212,255,0.2)" stroke-width="1"/>
           <text x="170" y="196" text-anchor="middle" font-family="sans-serif" font-size="22" font-weight="900" fill="rgba(0,212,255,0.9)">1.2k</text>
           <text x="170" y="216" text-anchor="middle" font-family="sans-serif" font-size="11" fill="rgba(255,255,255,0.5)">Leads/mês</text>
           <rect x="256" y="164" width="140" height="80" rx="10" fill="rgba(37,211,102,0.1)" stroke="rgba(37,211,102,0.2)" stroke-width="1"/>
           <text x="326" y="196" text-anchor="middle" font-family="sans-serif" font-size="22" font-weight="900" fill="rgba(37,211,102,0.9)">38%</text>
           <text x="326" y="216" text-anchor="middle" font-family="sans-serif" font-size="11" fill="rgba(255,255,255,0.5)">Conversão</text>
           <rect x="412" y="164" width="140" height="80" rx="10" fill="rgba(255,150,0,0.1)" stroke="rgba(255,150,0,0.25)" stroke-width="1"/>
           <text x="482" y="196" text-anchor="middle" font-family="sans-serif" font-size="22" font-weight="900" fill="rgba(255,150,0,0.9)">R$4.2</text>
           <text x="482" y="216" text-anchor="middle" font-family="sans-serif" font-size="11" fill="rgba(255,255,255,0.5)">CPL médio</text>
           <!-- Chart bars -->
           <rect x="100" y="264" width="560" height="200" rx="10" fill="rgba(255,255,255,0.02)" stroke="rgba(255,255,255,0.06)" stroke-width="1"/>
           <rect x="130" y="370" width="40" height="80" rx="4" fill="rgba(24,119,242,0.5)"/>
           <rect x="190" y="340" width="40" height="110" rx="4" fill="rgba(24,119,242,0.6)"/>
           <rect x="250" y="310" width="40" height="140" rx="4" fill="rgba(24,119,242,0.7)"/>
           <rect x="310" y="290" width="40" height="160" rx="4" fill="rgba(0,212,255,0.6)"/>
           <rect x="370" y="270" width="40" height="180" rx="4" fill="rgba(0,212,255,0.8)"/>
           <rect x="430" y="300" width="40" height="150" rx="4" fill="rgba(0,212,255,0.65)"/>
           <rect x="490" y="330" width="40" height="120" rx="4" fill="rgba(0,212,255,0.5)"/>
           <rect x="550" y="360" width="40" height="90" rx="4" fill="rgba(0,212,255,0.4)"/>
</svg>